<?xml version="1.0" encoding="UTF-8" standalone="no"?>
<!DOCTYPE svg PUBLIC "-//W3C//DTD SVG 1.1//EN" "http://www.w3.org/Graphics/SVG/1.1/DTD/svg11.dtd">
<!-- Created with Vectornator (http://vectornator.io/) -->
<svg height="100%" stroke-miterlimit="10" style="fill-rule:nonzero;clip-rule:evenodd;stroke-linecap:round;stroke-linejoin:round;" version="1.1" viewBox="0 0 512 512" width="100%" xml:space="preserve" xmlns="http://www.w3.org/2000/svg" xmlns:xlink="http://www.w3.org/1999/xlink">
<defs>
<radialGradient cx="0" cy="0" gradientTransform="matrix(-1.0441e-05 238.859 -238.863 -1.04409e-05 253.166 284.328)" gradientUnits="userSpaceOnUse" id="RadialGradient" r="1">
<stop offset="0.166667" stop-color="#073183"/>
<stop offset="1" stop-color="#0054f9"/>
</radialGradient>
</defs>
<clipPath id="ArtboardFrame">
<rect height="512" width="512" x="0" y="0"/>
</clipPath>
<g clip-path="url(#ArtboardFrame)" id="Layer-1">
<g opacity="1">
<path d="M253.166 49.4401L253.166 49.4401C370.588 49.4401 465.777 144.628 465.777 262.047L465.777 262.047C465.777 379.467 370.588 474.655 253.166 474.655L253.166 474.655C135.745 474.655 40.5557 379.467 40.5557 262.047L40.5557 262.047C40.5557 144.628 135.745 49.4401 253.166 49.4401Z" fill="url(#RadialGradient)" fill-rule="nonzero" opacity="1" stroke="none"/>
<path d="M397.744 195.684C396.855 200.888 395.813 203.411 394.593 206.333L394.591 206.34C393.273 209.505 391.779 213.098 390.427 220.227C389.889 223.08 389.621 225.174 389.387 227.019L389.371 227.133L389.357 227.241C388.981 230.195 388.729 232.186 387.528 235.729C386.555 238.621 384.925 243.449 381.002 248.649C377.833 252.856 372.528 259.898 365.449 260.741C364.835 260.782 363.549 260.847 363.025 260.579C342.943 250.324 325.69 242.748 319.718 241.048C312.773 239.079 313.662 223.934 314.448 210.572C314.801 204.601 315.133 198.954 314.853 194.119C313.877 177.251 310.891 158.788 296.2 149.787C287.43 144.416 276.116 142.839 265.307 142.816C267.31 141.863 269.544 140.568 271.978 139.152L272.053 139.108C278.417 135.423 286.319 130.847 294.169 130.043C296.736 129.789 299.259 129.493 301.748 129.216C317.573 127.424 331.247 125.884 345.668 130.822C352.206 133.066 365.616 140.547 369.079 147.493C371.517 152.397 375.631 156.219 383.837 163.848C388.108 167.821 390.922 170.134 392.982 171.825L393.076 171.903C395.968 174.281 396.539 174.779 397.401 176.536C400.059 181.956 399.089 187.712 397.744 195.684Z" fill="#ffffff" fill-rule="nonzero" opacity="1" stroke="none"/>
<path d="M324.693 265.026C325.644 265.354 326 266.509 325.447 267.348C323.302 270.602 320.846 275.066 317.901 280.524C316.519 283.098 315.211 285.527 314.113 287.422C310.222 294.104 309.906 299.727 309.658 304.242C309.39 308.962 309.152 311.13 306.331 313.011C304.003 314.572 301.617 315.092 285.083 317.611C282.198 318.057 280.917 318.616 279.792 319.107C279.485 319.24 279.18 319.373 278.832 319.503C277.876 319.861 276.941 319.047 276.999 318.032C277.129 315.649 277.214 312.672 277.223 308.928L277.223 308.211C277.31 304.97 277.175 302.342 277.058 300.222C276.841 296.001 276.813 294.223 277.938 292.385C279.32 290.165 280.397 289.486 282.168 288.364C284.641 286.81 288.033 284.672 293.051 277.774C295.719 274.122 296.31 272.142 296.679 270.43C296.839 269.72 296.896 269.454 298.95 267.898C301.12 266.25 307.736 261.238 316.203 262.662C318.545 263.058 321.529 263.933 324.693 265.026Z" fill="#ffffff" fill-rule="nonzero" opacity="1" stroke="none"/>
<path d="M258.907 341.255C258.547 341.724 258.125 341.942 257.518 341.972C255.79 342.045 254.576 341.617 253.771 340.65C252.066 338.574 252.295 334.403 252.694 331.965L259.686 330.102C260.233 333.803 260.49 339.195 258.907 341.255Z" fill="#ffffff" fill-rule="nonzero" opacity="1" stroke="none"/>
<path d="M259.473 316.022C259.356 317.042 259.227 318.19 259.232 319.391C259.241 319.838 259.246 320.289 259.26 320.727C259.273 321.871 259.319 323.685 259.161 324.51C256.977 325.306 255.112 325.306 252.66 325.262C252.623 324.554 252.669 323.497 252.696 322.785C252.71 322.235 252.74 321.687 252.747 321.165C252.754 320.585 252.747 320.014 252.747 319.444C252.738 318.099 252.719 315.894 253.049 315.246C253.707 315.149 254.381 315.005 255.103 314.84C256.549 314.528 258.435 314.13 259.635 314.311C259.617 314.778 259.544 315.472 259.473 316.022Z" fill="#ffffff" fill-rule="nonzero" opacity="1" stroke="none"/>
<path d="M246.537 339.103C246.2 342.687 245.093 347.119 241.731 347.792C240.219 348.104 239.488 347.648 239.027 347.215C236.756 345.111 236.394 338.755 236.71 334.208C238.223 334.236 240.205 333.897 242.552 333.443C243.984 333.159 245.409 332.842 246.544 332.581C246.674 334.263 246.768 336.665 246.537 339.103Z" fill="#ffffff" fill-rule="nonzero" opacity="1" stroke="none"/>
<path d="M244.949 326.236L237.363 328.896C237.748 325.952 238.262 321.809 238.443 319.057C238.573 317.118 239.1 316.524 239.252 316.396C239.302 316.352 239.403 316.261 239.685 316.261C239.728 316.261 239.772 316.268 239.82 316.268L239.98 316.291L244.772 316.029C244.976 318.282 244.976 323.229 244.949 326.236Z" fill="#ffffff" fill-rule="nonzero" opacity="1" stroke="none"/>
<path d="M232.693 323.878C232.265 325.019 231.758 328.252 231.442 330.528L221.941 330.239C222.477 327.297 223.22 324.302 224.036 321.916C224.861 319.545 225.75 317.766 226.568 317.267C227.521 316.694 229.62 316.566 230.906 317.663C232.996 319.446 233.573 321.486 232.693 323.878Z" fill="#ffffff" fill-rule="nonzero" opacity="1" stroke="none"/>
<path d="M229.146 352.958C228.41 353.964 227.592 354.475 226.579 354.582C225.546 354.699 224.741 354.468 224.1 353.867C221.116 351.113 221.359 342.089 221.469 337.751C225.408 336.853 229.661 336.09 231.678 335.973C231.981 339.605 232.068 348.982 229.146 352.958Z" fill="#ffffff" fill-rule="nonzero" opacity="1" stroke="none"/>
<path d="M216.746 329.983C216.283 331.22 215.834 332.389 215.495 333.424C214.39 333.77 211.013 333.468 207.564 332.707L209.936 317.755C213.831 316.721 218.35 316.389 219.443 317.546C220.882 319.075 217.991 326.724 216.746 329.983Z" fill="#ffffff" fill-rule="nonzero" opacity="1" stroke="none"/>
<path d="M212.447 355.233C210.605 357.504 207.841 358.565 203.987 358.524C201.319 358.48 200.366 357.467 199.889 356.709C197.749 353.32 199.843 345.329 201.943 340.226L214.812 340.998C214.943 341.894 215.05 342.985 215.101 344.172C215.243 347.804 214.787 352.327 212.447 355.233Z" fill="#ffffff" fill-rule="nonzero" opacity="1" stroke="none"/>
<path d="M318.799 246.728C307.213 243.447 308.21 226.506 309.175 210.132C309.516 204.339 309.839 198.86 309.576 194.383C308.687 179.057 306.109 162.365 293.782 154.81C280.523 146.702 258.833 148.549 245.45 150.252C245.439 150.254 245.428 150.261 245.416 150.264C245.409 150.264 245.405 150.264 245.4 150.266C240.498 151.751 235.913 152.713 232.359 152.525C224.462 152.117 218.318 148.792 212.908 145.875C208.687 143.588 205.004 141.613 201.537 141.613C201.354 141.613 201.161 141.613 200.971 141.62C190.597 142.294 185.828 144.828 181.497 148.694C180.409 149.656 179.079 152.45 174.73 164.982C172.535 171.316 172.129 174.781 171.721 178.149C171.355 181.227 170.981 184.391 169.345 189.112C168.206 192.371 167.365 195.18 166.551 197.889C164.406 205.086 162.711 210.756 157.617 217.498C157.018 218.295 156.278 219.468 155.421 220.804C154.266 222.624 152.836 224.885 150.95 227.505C149.619 229.349 146.562 236.254 146.729 238.357C146.979 241.708 148.068 243.786 149.314 246.213C150.554 248.605 151.965 251.314 152.222 255.054L152.266 255.661C152.719 261.594 151.874 264.57 140.588 274.651C133.372 281.108 128.245 287.328 124.787 291.893C124.483 292.296 124.879 292.894 125.383 292.853C125.5 292.837 125.617 292.83 125.725 292.83C125.942 292.811 126.158 292.805 126.373 292.805C126.588 292.805 126.806 292.811 127.019 292.821C127.237 292.83 127.446 292.846 127.659 292.878C130.388 293.189 133.048 294.344 134.969 296.334C135.303 296.68 135.824 296.774 136.268 296.595C138.106 295.829 140.125 295.955 142.054 296.136C144.438 296.356 146.844 297.069 148.425 298.607C148.902 299.072 149.582 299.308 150.233 299.159C152.101 298.735 154.06 298.774 155.877 299.434C157.312 299.968 158.517 300.811 159.475 301.872C160.144 302.615 161.331 302.757 162.17 302.216C162.692 301.879 163.268 301.595 163.907 301.379C166.357 300.548 169.068 301.022 171.446 301.877C172.617 302.298 173.845 302.674 174.902 303.38C176.843 304.672 178.028 306.561 178.784 308.671C179.212 309.861 180.814 310.273 181.786 309.464C183.532 308.011 184.914 307.766 186.307 308.385C187.017 308.706 187.512 309.146 187.845 309.698C188.425 310.658 189.605 311.449 190.684 311.146C194.477 310.09 199.225 310.64 202.664 312.482C203.879 313.119 205.073 314.093 205.944 315.564C205.946 315.564 205.946 315.564 205.946 315.566C205.948 315.573 205.955 315.571 205.955 315.564L206.056 314.911C206.102 314.615 206.31 314.37 206.597 314.281L207.394 314.036C209.273 313.438 218.848 310.679 222.571 314.599C222.732 314.76 223.011 314.776 223.167 314.609C223.674 314.052 224.086 313.747 224.35 313.596C226.774 312.125 230.933 312.033 233.699 314.402C234.256 314.87 235.159 314.7 235.578 314.104C235.837 313.74 236.131 313.417 236.461 313.14C237.432 312.301 238.663 311.9 240.026 311.985L245.285 311.701C246.608 311.627 250.719 311.348 252.014 311.075C252.112 311.054 252.213 311.036 252.316 311.02C252.864 310.935 253.515 310.795 254.195 310.653C256.746 310.097 259.64 309.471 262.016 310.569C264.299 311.625 264.01 314.226 263.735 316.52C263.627 317.45 263.51 318.422 263.52 319.345C263.536 319.776 263.545 320.209 263.552 320.651C263.586 322.629 263.627 324.455 263.235 325.858C263.235 325.86 263.235 325.865 263.235 325.867C263.235 325.869 263.235 325.872 263.235 325.874L263.476 326.96C263.487 327.001 263.499 327.054 263.513 327.118C263.728 328.113 264.796 328.667 265.665 328.138C267.498 327.02 269.425 325.567 270.007 324.73C270.051 324.666 270.085 324.6 270.11 324.526C270.19 324.316 270.339 323.86 270.502 322.906C270.827 320.952 271.192 316.98 271.224 308.916C271.224 308.49 271.224 308.185 271.233 308.043C271.3 305.051 271.183 302.649 271.066 300.529C270.85 296.157 270.674 292.717 272.844 289.216C274.957 285.808 277.008 284.521 278.979 283.272C281.27 281.835 283.857 280.203 288.214 274.229C290.349 271.287 290.613 270.1 290.821 269.151C291.296 266.931 292.029 265.595 295.327 263.102C298.012 261.074 306.182 254.882 317.204 256.736C320.818 257.35 326.678 259.277 332.46 261.555C332.462 261.557 332.464 261.557 332.469 261.557C332.471 261.557 332.473 261.557 332.476 261.557C332.691 261.621 332.913 261.697 333.117 261.805C333.191 261.843 333.266 261.88 333.344 261.912C338.509 263.975 343.535 266.278 346.754 268.118C347.504 268.546 348.464 268.299 348.991 267.614C350.045 266.246 351.195 265.453 352.435 264.708C352.9 264.426 353.258 264.211 353.599 263.92C353.716 263.821 353.831 263.725 353.943 263.633C354.906 262.854 354.903 261.188 353.801 260.62C338.266 252.588 323.635 248.103 318.799 246.728ZM208.396 250.294C204.812 265.977 180.516 283.217 169.473 283.217L169.255 283.217C169.081 283.208 168.889 283.192 168.683 283.157C168.474 283.125 168.249 283.075 168.011 283.008C167.894 282.974 167.768 282.933 167.644 282.9C165.639 282.268 162.864 280.728 160.763 278.661C159.317 277.243 158.178 275.567 157.82 273.764C157.754 273.448 157.688 273.134 157.619 272.818C157.023 270.15 156.28 266.818 158.634 261.365C158.959 260.633 159.248 259.951 159.514 259.327C159.599 259.121 159.69 258.913 159.773 258.713C160.023 258.124 160.245 257.583 160.447 257.093C160.779 256.264 161.052 255.558 161.276 254.957C161.368 254.724 161.453 254.499 161.526 254.293C162.2 252.407 162.282 251.701 162.374 250.97C162.459 250.397 162.541 249.696 162.775 248.699C163.465 245.757 163.822 243.264 164.138 241.043C164.704 237.051 165.195 233.605 167.347 230.438C167.713 229.899 168.119 229.407 168.577 228.976C168.735 228.827 168.886 228.685 169.049 228.543C169.216 228.401 169.384 228.277 169.546 228.151C170.069 227.784 170.628 227.461 171.233 227.186C171.442 227.094 171.65 227.003 171.856 226.93C172.283 226.771 172.729 226.636 173.197 226.519C175.175 226.04 177.51 225.965 180.193 226.304C183.129 226.538 185.846 227.092 188.255 227.766C190.267 228.32 192.064 228.971 193.583 229.576C193.741 229.636 193.892 229.693 194.041 229.76C194.332 229.876 194.614 229.993 194.889 230.119C195.306 230.293 195.687 230.461 196.044 230.617C196.518 230.832 196.952 231.024 197.334 231.196L197.692 231.364C199.387 232.136 200.845 232.984 202.089 233.873C202.703 234.324 203.279 234.78 203.792 235.243C203.968 235.394 204.136 235.553 204.289 235.718C204.456 235.878 204.615 236.036 204.763 236.194C209.431 241.11 209.2 246.795 208.396 250.294ZM219.654 190.849L219.182 193.693C218.094 200.1 215.591 208.886 206.365 211.148C197.49 213.318 195.386 213.781 189.068 214.065C188.929 214.081 188.777 214.081 188.628 214.081C184.015 214.081 175.138 211.173 173.566 203.941C172.56 199.287 174.613 195.913 177.996 190.32C178.559 189.396 179.169 188.406 179.815 187.302C184.286 179.769 186.048 174.318 187.464 169.946C188.842 165.674 189.99 162.143 192.941 159.217C193.622 158.536 194.394 157.894 195.292 157.28C195.865 156.888 196.463 156.54 197.096 156.215C197.935 155.798 198.815 155.436 199.738 155.142C201.791 154.487 204.01 154.155 206.23 154.155C210.534 154.155 214.833 155.392 217.899 157.853C219.278 158.958 221.24 161.167 222.379 167.684C222.966 171.041 221.966 177.21 219.654 190.849ZM285.475 209.085C282.299 214.537 280.562 217.539 277.819 219.789C272.377 224.26 266.027 225.392 260.797 225.392C257.041 225.392 253.851 224.812 251.972 224.468C246.569 223.481 236.513 221.652 233.163 213.714C232.508 212.144 232.501 211.148 232.501 209.883C232.501 208.634 232.501 206.535 231.919 201.537L231.887 201.205C231.619 198.943 231.321 196.383 231.969 193.099L232.045 192.708C233.94 183.069 234.453 181.596 234.879 180.764C235.86 178.869 238.186 178.122 240.081 179.096C241.917 180.051 242.682 182.276 241.818 184.146C241.626 184.694 241.087 186.747 239.623 194.204L239.547 194.596C239.13 196.699 239.314 198.294 239.557 200.315L239.589 200.657C240.219 206.083 240.219 208.542 240.219 209.873C240.219 210.11 240.219 210.366 240.228 210.52C240.23 210.579 240.26 210.657 240.278 210.714C240.906 212.204 242.322 213.334 244.048 214.202C245.121 214.741 246.241 213.716 246.003 212.541C244.286 204.046 244.38 194.137 247.625 188.014C248.689 185.982 250.655 182.655 252.522 179.55C252.529 179.54 252.534 179.533 252.538 179.524C252.543 179.515 252.55 179.508 252.554 179.499C252.745 179.185 252.932 178.876 253.12 178.564C253.279 178.296 253.437 178.042 253.583 177.792C254.406 176.426 255.178 175.173 255.797 174.176C255.879 174.034 255.962 173.892 256.047 173.759C256.104 173.658 256.164 173.566 256.221 173.484C256.354 173.266 256.471 173.067 256.581 172.895C256.629 172.812 256.679 172.737 256.721 172.661C256.746 172.629 256.764 172.595 256.78 172.569C256.837 172.469 256.897 172.377 256.947 172.304C257.046 172.145 257.122 172.029 257.163 171.953C257.167 171.946 257.17 171.942 257.172 171.935C257.181 171.919 257.199 171.893 257.209 171.877C257.215 171.866 257.218 171.864 257.225 171.852C257.869 170.915 258.506 170.024 259.124 169.185C259.965 168.046 258.991 166.554 257.681 167.09C254.527 168.376 252.373 170.019 251.936 170.365C250.265 171.696 247.836 171.421 246.516 169.751C245.194 168.083 245.469 165.647 247.139 164.315C249.126 162.755 259.656 155.073 272.267 158.68C281.353 161.265 286.115 168.206 287.909 170.816C289.355 172.936 293.787 179.371 293.645 188.354C293.539 195.205 290.682 200.134 285.475 209.085Z" fill="#ffffff" fill-rule="nonzero" opacity="1" stroke="none"/>
<path d="M203.576 162.102C202.93 163.665 202.158 165.601 201.328 167.705C199.39 172.576 197.192 178.094 196.136 180.095C194.314 183.553 192.895 185.734 191.763 187.492C190.466 189.511 189.433 191.108 188.654 193.335C187.286 197.231 187.04 201.585 187.93 206.319C185.514 206.053 181.561 204.39 181.114 202.293C180.78 200.733 181.749 199.025 184.607 194.325C185.18 193.388 185.794 192.368 186.465 191.234C191.376 182.964 193.363 176.811 194.825 172.313C196.401 167.418 197.146 165.365 199.656 163.651C200.778 162.869 202.144 162.372 203.576 162.102Z" fill="#ffffff" fill-rule="nonzero" opacity="1" stroke="none"/>
<path d="M198.78 335.535C196.104 341.003 192.772 346.049 190.695 348.549C188.977 343.901 185.989 333.253 186.777 324.685C186.8 324.437 186.827 324.192 186.864 323.954C187.18 321.307 187.884 318.88 189.135 316.934C189.96 315.656 192.245 314.874 194.839 314.874C196.754 314.874 198.837 315.294 200.632 316.256L200.646 316.256C201.606 316.77 202.914 317.81 203.052 320.832C203.249 324.916 201.303 330.404 198.78 335.535Z" fill="#ffffff" fill-rule="nonzero" opacity="1" stroke="none"/>
<path d="M345.43 274.266C345.636 274.433 345.767 274.685 345.648 274.924C344.848 276.53 343.89 277.657 342.758 278.984C341.392 280.611 339.829 282.456 338.376 285.332C336.307 289.408 335.645 293.128 335.296 302.649C334.886 313.834 335.319 320.117 335.645 324.698C335.954 329.123 336.144 331.791 335.356 336.106C333.766 344.811 330.042 350.574 325.326 357.868C319.425 366.991 313.323 376.421 303.217 379.427C302.277 379.716 302.245 379.716 299.61 379.725C297.316 379.725 293.5 379.734 286.277 380C273.076 380.479 266.453 380.717 260.786 381.806C254.841 382.956 251.741 384.221 248.734 385.436C246.021 386.533 243.457 387.576 238.541 388.587C235.61 389.178 231.231 389.824 216.308 389.847C200.799 389.874 191.436 389.881 179.073 388.472C162.11 386.536 153.595 385.566 147.939 382.546C134.6 375.431 128.967 362.635 119.65 341.436C119.634 341.399 119.618 341.362 119.601 341.323C119.487 341.06 119.808 340.806 120.055 340.952C120.497 341.227 120.958 341.454 121.444 341.617C121.852 341.761 122.276 341.871 122.704 341.942C123.557 342.087 124.446 342.096 125.349 341.942C125.507 341.915 125.651 341.878 125.791 341.821C125.819 341.809 125.844 341.795 125.871 341.784C126.029 341.706 126.224 341.77 126.291 341.933C126.884 343.567 127.826 345.022 129.407 345.861C130.991 346.686 132.792 346.75 134.554 346.736C136.369 346.709 138.198 346.605 140.006 346.388C140.964 346.287 141.944 346.757 142.311 347.648C143.968 351.663 146.019 354.569 149.101 354.997C149.268 355.02 149.486 355.048 149.761 355.048C150.455 355.048 151.528 354.846 153.04 353.806C154.211 353.003 156.024 353.475 156.865 354.619C157.635 355.662 158.551 356.411 159.34 357.043C162.514 360.302 170.227 361.865 176.705 361.865C180.239 361.865 183.408 361.4 185.274 360.492C187.941 359.198 187.941 357.211 187.81 356.406C187.583 354.965 187.377 353.535 187.203 352.119C187.182 351.949 187.439 351.883 187.508 352.041C187.895 352.887 188.369 353.941 189.632 354.145C189.77 354.158 189.923 354.188 190.097 354.188C191.903 354.188 194.713 354.777 195.196 356.516C195.444 357.403 195.792 358.233 196.266 358.982C197.35 360.698 199.557 362.743 203.932 362.816L204.271 362.816C209.294 362.816 213.171 361.173 215.786 357.926C215.956 357.717 216.118 357.502 216.274 357.284C217.214 355.959 220.005 355.902 221.199 357.002C222.544 358.246 224.237 358.888 226.123 358.888C226.426 358.888 226.733 358.874 227.049 358.838C229.297 358.599 231.243 357.408 232.696 355.375C233.647 354.048 234.341 352.417 234.847 350.652C234.996 350.132 235.711 349.979 236.11 350.343C237.07 351.232 238.61 352.172 240.831 352.172C241.371 352.172 241.958 352.114 242.581 351.984C246.945 351.106 249.117 347.495 250.146 343.418C250.18 343.28 250.377 343.244 250.469 343.351C251.574 344.697 253.613 346.25 257.163 346.25C257.344 346.25 257.532 346.25 257.717 346.241C259.596 346.154 261.18 345.329 262.323 343.853C263.714 342.041 264.262 339.353 264.388 336.649C264.425 335.86 264.933 335.168 265.662 334.864C269.407 333.298 273.942 329.928 275.271 327.631C275.317 327.551 275.362 327.466 275.408 327.379C275.713 326.788 276.236 326.321 276.889 326.197C279.79 325.647 281.055 325.099 282.205 324.6C283.142 324.187 283.896 323.862 286.005 323.534C302.779 320.974 306.054 320.411 309.684 317.991C315.112 314.37 315.387 309.386 315.655 304.565C315.885 300.488 316.146 295.861 319.313 290.433C320.463 288.451 321.79 285.978 323.202 283.361C325.672 278.78 329.123 272.366 331.593 269.005C332.058 268.37 332.899 268.173 333.624 268.48C339.421 270.943 344.36 273.409 345.43 274.266Z" fill="#ffffff" fill-rule="nonzero" opacity="1" stroke="none"/>
<path d="M182.528 324.178C181.864 329.978 181.458 337.726 182.398 347.818C182.663 350.666 183.035 353.622 183.495 356.617C182.7 357.05 180.326 357.658 176.105 357.591C170.039 357.47 164.134 355.943 162.36 354.025L162.085 353.778C160.609 352.593 159.642 351.812 159.505 349.694C159.459 348.979 159.766 348.271 160.421 347.27C160.783 346.706 161.26 346.055 161.851 345.253C162.871 343.885 164.136 342.18 165.431 339.981C169.228 333.567 170.667 331.587 172.496 329.084C172.64 328.883 172.794 328.679 172.952 328.47C174.029 326.994 175.294 325.23 177.196 322.331C178.612 320.179 179.79 318.493 180.761 317.168C182.382 314.966 183.443 313.77 184.123 313.119C184.022 314.118 183.798 315.521 183.58 316.815C183.259 318.807 182.854 321.243 182.528 324.178Z" fill="#ffffff" fill-rule="nonzero" opacity="1" stroke="none"/>
<path d="M179.749 234.013C179.712 234.063 179.668 234.113 179.632 234.166C178.843 235.259 177.941 236.494 176.863 238.901C173.971 245.328 173.917 248.967 173.871 251.894C173.843 253.427 173.827 254.648 173.408 256.073C173.119 257.013 172.649 258.09 172.106 259.332C170.401 263.237 168.174 268.356 169.173 275.244C167.791 274.58 165.678 273.061 165.385 272.252C165.312 271.876 165.231 271.507 165.147 271.138C164.668 268.989 164.351 267.588 165.717 264.442C169.31 256.156 169.753 254.192 170.035 251.935C170.092 251.442 170.151 251.059 170.296 250.436C171.054 247.168 171.451 244.37 171.776 242.122C172.26 238.71 172.585 236.453 173.735 234.755C174.155 234.127 175.342 233.802 177.04 233.802C177.711 233.802 178.47 233.852 179.297 233.969L179.49 233.983C179.574 233.992 179.664 233.999 179.749 234.013Z" fill="#ffffff" fill-rule="nonzero" opacity="1" stroke="none"/>
<path d="M175.01 315.752C174.815 313.765 174.466 311.774 173.745 309.902C173.694 309.808 173.479 309.329 173.433 309.237C173.302 308.999 173.153 308.774 173.014 308.538C173.004 308.529 173 308.529 173 308.522C172.991 308.508 172.986 308.508 172.986 308.502C172.906 308.415 172.833 308.33 172.755 308.247C172.638 308.13 172.512 308.018 172.386 307.915C172.363 307.887 172.342 307.865 172.322 307.855C172.264 307.807 172.177 307.739 172.083 307.684C171.93 307.603 171.785 307.516 171.636 307.441C171.591 307.411 171.483 307.367 171.382 307.331C171.382 307.331 171.375 307.331 171.375 307.324C171.352 307.315 171.329 307.31 171.311 307.301C171.288 307.287 171.274 307.278 171.261 307.273C171.238 307.264 171.224 307.26 171.21 307.26C171.196 307.26 171.196 307.25 171.196 307.25C171.151 307.228 171.123 307.223 171.102 307.214C169.945 306.79 168.772 306.325 167.544 306.144C167.537 306.144 167.516 306.137 167.5 306.137L167.473 306.137C167.335 306.137 167.053 306.109 167.039 306.109C166.868 306.1 166.7 306.1 166.533 306.109C166.453 306.109 166.375 306.109 166.302 306.116L166.237 306.116C166.21 306.116 166.176 306.125 166.139 306.125C166.125 306.139 166.102 306.139 166.093 306.139C166.086 306.139 166.079 306.139 166.079 306.139C165.804 306.219 165.516 306.293 165.241 306.377C165.124 306.437 164.995 306.494 164.879 306.568C164.78 306.625 164.677 306.698 164.576 306.749C164.569 306.755 164.555 306.769 164.539 306.769L164.519 306.792C164.388 306.923 164.251 307.044 164.12 307.175C164.076 307.221 163.955 307.37 163.868 307.48C163.845 307.493 163.831 307.507 163.831 307.521C163.824 307.528 163.824 307.528 163.818 307.535C163.811 307.541 163.811 307.548 163.795 307.555C163.788 307.564 163.788 307.571 163.781 307.571C163.746 307.633 163.71 307.686 163.696 307.716C163.231 308.437 162.761 309.155 162.278 309.867C161.164 311.575 160.023 313.273 158.865 314.959C157.809 316.485 156.755 318.012 155.705 319.535C155.119 320.39 154.541 321.233 153.964 322.088C153.863 322.233 153.769 322.377 153.675 322.521C154.36 322.652 155.048 322.787 155.742 322.918C157.296 323.202 158.843 323.475 160.419 323.69C163.664 324.132 166.964 324.336 170.252 324.219C170.41 324.21 170.569 324.219 170.715 324.247C171.506 323.119 172.436 321.774 173.623 319.973C174.281 318.967 174.909 318.037 175.5 317.175C175.234 316.763 175.067 316.27 175.01 315.752Z" fill="#ffffff" fill-rule="nonzero" opacity="1" stroke="none"/>
<path d="M163.451 329.162C163.171 331.665 160.371 338.14 156.003 344.307C152.346 349.463 150.125 350.714 149.683 350.758C147.919 350.513 146.177 346.145 144.795 341.814C144.241 340.058 143.739 338.308 143.319 336.841C142.373 333.546 142.201 329.126 142.366 326.35C146.055 328.395 152.532 328.944 161.629 328.981L161.657 328.981C162.257 329.045 162.85 329.112 163.451 329.162Z" fill="#ffffff" fill-rule="nonzero" opacity="1" stroke="none"/>
<path d="M156.982 308.559C156.982 308.568 156.982 308.568 156.982 308.573C156.938 308.632 156.902 308.696 156.86 308.754C155.297 311.052 153.723 313.339 152.147 315.628C151.331 316.808 150.522 317.986 149.717 319.173C149.277 319.817 148.684 320.525 148.171 321.291C146.876 320.986 145.583 320.69 144.302 320.328C143.255 320.026 142.222 319.7 141.206 319.295C141.003 319.221 140.808 319.141 140.62 319.05C140.453 318.71 140.214 318.406 139.925 318.174C139.932 318.167 139.932 318.147 139.939 318.138C140.308 317.386 140.684 316.627 141.053 315.876C141.754 314.496 142.458 313.124 143.237 311.792C144.628 309.391 146.303 306.948 148.654 305.392C148.771 305.305 148.899 305.225 149.023 305.147C149.935 304.574 150.847 304.171 151.965 304.033C152.096 304.019 152.884 304.024 153.253 304.056C153.317 304.056 153.37 304.063 153.407 304.063L153.414 304.063C153.441 304.072 153.494 304.086 153.572 304.113C153.847 304.2 154.124 304.258 154.399 304.352C154.493 304.397 154.578 304.439 154.674 304.489C154.912 304.634 155.158 304.764 155.382 304.945C155.02 304.67 155.882 305.559 155.882 305.495C156.576 306.455 156.787 307.26 156.982 308.559Z" fill="#ffffff" fill-rule="nonzero" opacity="1" stroke="none"/>
<path d="M144.607 302.042C141.715 304.42 139.612 307.587 137.856 310.883C136.871 312.711 135.982 314.576 135.056 316.435C134.962 316.625 134.868 316.806 134.76 316.992C133.885 316.802 133.009 316.55 132.155 316.277C131.245 315.988 130.34 315.656 129.474 315.253C129.077 315.062 128.678 314.868 128.282 314.659C129.148 313.018 130.182 311.442 131.167 309.911C132.556 307.748 134.059 305.623 135.693 303.628C136.307 302.869 136.958 302.037 137.82 301.538C138.699 301.017 139.765 301.141 140.776 301.198C141.846 301.265 142.996 301.292 144.007 301.698C144.215 301.787 144.442 301.927 144.607 302.042Z" fill="#ffffff" fill-rule="nonzero" opacity="1" stroke="none"/>
<path d="M140.015 340.851C139.87 340.973 139.749 341.103 139.641 341.257C139.541 341.284 139.437 341.307 139.373 341.323C138.679 341.394 137.971 341.445 137.27 341.491C135.924 341.576 134.559 341.635 133.2 341.585C132.441 341.557 131.754 341.44 131.442 340.957C130.942 340.198 130.791 338.874 130.613 337.868C129.723 332.929 129.607 327.785 130.237 322.787C132.817 323.713 135.473 324.43 138.195 324.877C137.609 329.382 138.608 335.996 139.192 338.021C139.465 338.963 139.74 339.916 140.015 340.851Z" fill="#ffffff" fill-rule="nonzero" opacity="1" stroke="none"/>
<path d="M131.712 300.396C129.428 303.201 127.347 306.187 125.479 309.281C124.725 310.539 123.873 311.84 123.245 313.186C122.34 312.933 121.524 312.571 120.658 312.035C119.993 311.623 119.347 311.167 118.719 310.69C118.561 310.559 118.128 310.22 117.858 310.003C117.796 309.954 117.736 309.904 117.67 309.867C117.878 309.276 118.261 308.616 118.472 308.174C118.951 307.127 119.485 306.098 120.044 305.096C121.105 303.217 122.292 301.379 123.637 299.688C124.136 299.065 124.611 298.263 125.388 298.032C126.096 297.83 127.029 297.924 127.599 298.022C129.29 298.35 130.615 299.118 131.712 300.396Z" fill="#ffffff" fill-rule="nonzero" opacity="1" stroke="none"/>
<path d="M114.109 312.571C114.141 312.452 114.296 312.436 114.367 312.537C114.968 313.392 115.804 314.134 116.703 314.833C117.104 315.138 117.5 315.44 117.906 315.727C117.956 315.764 117.979 315.825 117.965 315.887C117.019 319.808 116.373 323.972 116.384 328.074C116.384 328.255 116.111 328.291 116.07 328.115C114.913 323.339 113.341 315.379 114.109 312.571Z" fill="#ffffff" fill-rule="nonzero" opacity="1" stroke="none"/>
<path d="M125.294 321.098C124.831 324.51 124.609 327.932 124.757 331.371C124.831 333.257 125.033 335.132 125.287 336.995C125.287 337.008 125.287 337.024 125.294 337.031L125.294 337.041C124.888 336.947 124.464 336.933 124.031 336.995C124.116 336.967 123.894 336.981 123.8 336.981L123.772 336.981C123.708 336.974 123.614 336.967 123.582 336.96C123.105 336.843 123.064 336.793 122.686 336.555C122.193 336.236 121.673 335.656 121.327 335.065C120.408 333.475 120.206 331.543 120.133 329.742C119.998 326.208 120.3 322.679 120.96 319.217C121.524 319.446 122.014 319.657 122.833 320.01C123.641 320.363 124.48 320.711 125.298 321.089L125.298 321.098L125.294 321.098Z" fill="#ffffff" fill-rule="nonzero" opacity="1" stroke="none"/>
<g opacity="0.8"/>
</g>
</g>
</svg>
