<?xml version="1.0" encoding="UTF-8" standalone="no"?>
<!DOCTYPE svg PUBLIC "-//W3C//DTD SVG 1.1//EN" "http://www.w3.org/Graphics/SVG/1.1/DTD/svg11.dtd">
<!-- Created with Vectornator (http://vectornator.io/) -->
<svg height="100%" stroke-miterlimit="10" style="fill-rule:nonzero;clip-rule:evenodd;stroke-linecap:round;stroke-linejoin:round;" version="1.1" viewBox="0 0 512 512" width="100%" xml:space="preserve" xmlns="http://www.w3.org/2000/svg" xmlns:xlink="http://www.w3.org/1999/xlink">
<defs>
<radialGradient cx="0" cy="0" gradientTransform="matrix(-1.22771e-05 280.864 -280.869 -1.2277e-05 255.825 282.461)" gradientUnits="userSpaceOnUse" id="RadialGradient" r="1">
<stop offset="0.166667" stop-color="#073183"/>
<stop offset="1" stop-color="#0054f9"/>
</radialGradient>
</defs>
<g id="Layer-1">
<g opacity="1">
<path d="M255.825 6.26583L255.825 6.26583C393.897 6.26583 505.825 118.193 505.825 256.261L505.825 256.261C505.825 394.331 393.897 506.258 255.825 506.258L255.825 506.258C117.755 506.258 5.82541 394.331 5.82541 256.261L5.82541 256.261C5.82541 118.193 117.755 6.26583 255.825 6.26583Z" fill="url(#RadialGradient)" fill-rule="nonzero" opacity="1" stroke="none"/>
<path d="M425.828 178.228C424.783 184.347 423.558 187.314 422.123 190.75L422.121 190.758C420.571 194.479 418.814 198.704 417.224 207.087C416.592 210.442 416.277 212.904 416.002 215.073L415.983 215.207L415.966 215.334C415.524 218.808 415.228 221.149 413.816 225.315C412.672 228.716 410.755 234.393 406.142 240.507C402.416 245.454 396.178 253.735 387.854 254.726C387.132 254.774 385.62 254.85 385.004 254.535C361.39 242.477 341.103 233.569 334.081 231.57C325.914 229.254 326.96 211.446 327.884 195.734C328.299 188.713 328.689 182.073 328.36 176.388C327.213 156.553 323.701 134.843 306.427 124.26C296.115 117.944 282.811 116.09 270.101 116.063C272.456 114.942 275.083 113.419 277.945 111.754L278.033 111.703C285.517 107.37 294.808 101.989 304.039 101.043C307.057 100.745 310.024 100.397 312.951 100.071C331.558 97.9638 347.637 96.153 364.594 101.959C372.282 104.598 388.05 113.395 392.122 121.562C394.989 127.329 399.826 131.823 409.476 140.793C414.498 145.465 417.807 148.185 420.229 150.173L420.339 150.265C423.74 153.061 424.411 153.647 425.425 155.713C428.55 162.086 427.41 168.854 425.828 178.228Z" fill="#ffffff" fill-rule="nonzero" opacity="1" stroke="none"/>
<path d="M339.931 259.764C341.049 260.15 341.467 261.508 340.817 262.495C338.295 266.321 335.407 271.57 331.944 277.988C330.319 281.014 328.781 283.871 327.49 286.099C322.915 293.956 322.543 300.568 322.252 305.877C321.936 311.427 321.657 313.976 318.339 316.188C315.602 318.023 312.797 318.635 293.355 321.597C289.963 322.121 288.456 322.779 287.133 323.356C286.772 323.512 286.414 323.669 286.005 323.822C284.88 324.242 283.781 323.285 283.849 322.092C284.002 319.29 284.102 315.789 284.113 311.387L284.113 310.544C284.215 306.733 284.056 303.643 283.919 301.15C283.663 296.187 283.63 294.096 284.953 291.935C286.578 289.324 287.845 288.526 289.927 287.206C292.835 285.379 296.824 282.865 302.724 274.754C305.861 270.46 306.556 268.132 306.99 266.119C307.178 265.284 307.245 264.971 309.661 263.141C312.212 261.204 319.992 255.31 329.948 256.985C332.701 257.45 336.21 258.479 339.931 259.764Z" fill="#ffffff" fill-rule="nonzero" opacity="1" stroke="none"/>
<path d="M262.576 349.399C262.152 349.95 261.656 350.207 260.942 350.242C258.91 350.328 257.483 349.824 256.536 348.687C254.532 346.246 254.801 341.342 255.27 338.475L263.492 336.284C264.135 340.636 264.437 346.977 262.576 349.399Z" fill="#ffffff" fill-rule="nonzero" opacity="1" stroke="none"/>
<path d="M263.241 319.728C263.104 320.928 262.952 322.278 262.958 323.69C262.968 324.215 262.974 324.746 262.991 325.261C263.006 326.606 263.06 328.739 262.874 329.709C260.306 330.645 258.113 330.645 255.23 330.593C255.187 329.761 255.241 328.518 255.272 327.681C255.289 327.034 255.324 326.39 255.332 325.776C255.341 325.094 255.332 324.422 255.332 323.752C255.322 322.171 255.299 319.578 255.687 318.816C256.461 318.702 257.254 318.533 258.103 318.338C259.803 317.972 262.021 317.504 263.432 317.716C263.41 318.266 263.325 319.082 263.241 319.728Z" fill="#ffffff" fill-rule="nonzero" opacity="1" stroke="none"/>
<path d="M248.03 346.868C247.634 351.083 246.332 356.294 242.379 357.085C240.601 357.452 239.742 356.916 239.2 356.407C236.529 353.933 236.103 346.459 236.475 341.113C238.254 341.145 240.585 340.747 243.344 340.213C245.028 339.879 246.704 339.506 248.038 339.199C248.191 341.177 248.302 344.002 248.03 346.868Z" fill="#ffffff" fill-rule="nonzero" opacity="1" stroke="none"/>
<path d="M246.163 331.739L237.243 334.866C237.696 331.405 238.3 326.533 238.513 323.297C238.666 321.017 239.285 320.319 239.464 320.168C239.523 320.116 239.642 320.009 239.973 320.009C240.024 320.009 240.076 320.018 240.132 320.018L240.32 320.045L245.955 319.737C246.195 322.386 246.195 328.203 246.163 331.739Z" fill="#ffffff" fill-rule="nonzero" opacity="1" stroke="none"/>
<path d="M231.752 328.966C231.248 330.308 230.652 334.109 230.281 336.785L219.109 336.446C219.739 332.986 220.613 329.464 221.572 326.659C222.542 323.871 223.588 321.779 224.55 321.192C225.67 320.519 228.138 320.368 229.65 321.658C232.108 323.755 232.786 326.153 231.752 328.966Z" fill="#ffffff" fill-rule="nonzero" opacity="1" stroke="none"/>
<path d="M227.581 363.16C226.715 364.343 225.754 364.944 224.562 365.069C223.348 365.207 222.401 364.935 221.648 364.229C218.139 360.99 218.424 350.379 218.554 345.279C223.186 344.223 228.186 343.325 230.558 343.188C230.914 347.459 231.017 358.485 227.581 363.16Z" fill="#ffffff" fill-rule="nonzero" opacity="1" stroke="none"/>
<path d="M213 336.145C212.456 337.599 211.928 338.974 211.529 340.191C210.23 340.597 206.259 340.242 202.203 339.348L204.993 321.766C209.573 320.55 214.886 320.16 216.172 321.52C217.864 323.318 214.464 332.312 213 336.145Z" fill="#ffffff" fill-rule="nonzero" opacity="1" stroke="none"/>
<path d="M207.945 365.835C205.779 368.505 202.529 369.753 197.997 369.705C194.86 369.653 193.74 368.462 193.179 367.571C190.662 363.586 193.125 354.189 195.594 348.189L210.726 349.097C210.88 350.15 211.006 351.433 211.066 352.829C211.233 357.099 210.697 362.418 207.945 365.835Z" fill="#ffffff" fill-rule="nonzero" opacity="1" stroke="none"/>
<path d="M333 238.248C319.377 234.39 320.549 214.47 321.684 195.217C322.085 188.405 322.464 181.962 322.155 176.698C321.11 158.677 318.078 139.05 303.584 130.166C287.993 120.632 262.489 122.804 246.752 124.806C246.739 124.809 246.726 124.817 246.712 124.82C246.704 124.82 246.699 124.82 246.693 124.823C240.929 126.569 235.538 127.7 231.359 127.479C222.073 126.999 214.849 123.09 208.487 119.66C203.524 116.97 199.193 114.648 195.117 114.648C194.901 114.648 194.674 114.648 194.451 114.656C182.253 115.449 176.645 118.428 171.552 122.974C170.273 124.106 168.709 127.391 163.595 142.127C161.014 149.575 160.537 153.649 160.057 157.609C159.627 161.229 159.187 164.949 157.263 170.5C155.924 174.332 154.935 177.635 153.978 180.821C151.456 189.283 149.463 195.95 143.473 203.878C142.769 204.815 141.898 206.195 140.891 207.765C139.533 209.906 137.851 212.564 135.633 215.645C134.068 217.813 130.474 225.932 130.67 228.405C130.964 232.346 132.245 234.789 133.71 237.643C135.168 240.456 136.827 243.641 137.129 248.039L137.181 248.752C137.714 255.729 136.72 259.228 123.449 271.082C114.964 278.674 108.936 285.988 104.869 291.356C104.512 291.83 104.978 292.533 105.57 292.485C105.708 292.466 105.845 292.458 105.972 292.458C106.228 292.436 106.482 292.428 106.734 292.428C106.987 292.428 107.244 292.436 107.494 292.447C107.75 292.458 107.996 292.477 108.247 292.514C111.455 292.88 114.583 294.238 116.842 296.578C117.235 296.985 117.847 297.095 118.37 296.885C120.531 295.984 122.905 296.132 125.173 296.345C127.976 296.604 130.805 297.442 132.664 299.251C133.225 299.798 134.025 300.075 134.79 299.9C136.987 299.401 139.29 299.447 141.427 300.223C143.114 300.851 144.531 301.842 145.658 303.09C146.444 303.964 147.84 304.131 148.827 303.494C149.44 303.098 150.118 302.764 150.869 302.51C153.75 301.533 156.938 302.09 159.734 303.096C161.111 303.591 162.555 304.033 163.798 304.863C166.08 306.382 167.473 308.604 168.362 311.085C168.866 312.484 170.749 312.968 171.892 312.017C173.945 310.309 175.57 310.02 177.208 310.748C178.043 311.126 178.625 311.643 179.017 312.292C179.699 313.421 181.086 314.351 182.355 313.995C186.815 312.753 192.398 313.4 196.442 315.566C197.87 316.315 199.274 317.46 200.299 319.19C200.301 319.19 200.301 319.19 200.301 319.192C200.303 319.2 200.312 319.198 200.312 319.19L200.43 318.422C200.484 318.074 200.729 317.786 201.066 317.681L202.004 317.393C204.213 316.69 215.472 313.446 219.85 318.055C220.039 318.244 220.367 318.263 220.55 318.067C221.147 317.412 221.631 317.053 221.941 316.876C224.792 315.146 229.682 315.038 232.935 317.823C233.59 318.374 234.651 318.174 235.144 317.473C235.449 317.045 235.794 316.665 236.182 316.34C237.324 315.353 238.772 314.881 240.374 314.981L246.558 314.647C248.114 314.56 252.948 314.232 254.47 313.911C254.586 313.887 254.704 313.866 254.826 313.847C255.47 313.747 256.235 313.582 257.035 313.415C260.035 312.761 263.438 312.025 266.231 313.316C268.916 314.558 268.576 317.617 268.253 320.314C268.126 321.408 267.988 322.55 268 323.636C268.019 324.143 268.029 324.652 268.037 325.171C268.077 327.497 268.126 329.644 267.665 331.294C267.665 331.296 267.665 331.302 267.665 331.305C267.665 331.307 267.665 331.311 267.665 331.313L267.948 332.59C267.961 332.638 267.975 332.7 267.992 332.776C268.244 333.946 269.5 334.597 270.522 333.975C272.677 332.66 274.943 330.952 275.628 329.968C275.679 329.892 275.719 329.815 275.749 329.728C275.843 329.481 276.018 328.945 276.21 327.823C276.592 325.525 277.021 320.855 277.059 311.373C277.059 310.872 277.059 310.513 277.069 310.346C277.148 306.828 277.01 304.004 276.873 301.511C276.619 296.37 276.412 292.325 278.964 288.208C281.448 284.201 283.86 282.688 286.177 281.219C288.871 279.529 291.913 277.61 297.036 270.586C299.547 267.126 299.857 265.731 300.102 264.615C300.66 262.004 301.522 260.433 305.4 257.502C308.558 255.117 318.164 247.836 331.125 250.016C335.374 250.738 342.265 253.004 349.063 255.683C349.066 255.685 349.068 255.685 349.074 255.685C349.076 255.685 349.079 255.685 349.082 255.685C349.335 255.76 349.596 255.85 349.836 255.977C349.923 256.022 350.011 256.065 350.103 256.103C356.176 258.528 362.086 261.236 365.871 263.4C366.753 263.903 367.882 263.613 368.502 262.807C369.741 261.199 371.093 260.266 372.551 259.39C373.098 259.059 373.519 258.806 373.92 258.464C374.058 258.347 374.193 258.235 374.324 258.126C375.457 257.21 375.453 255.251 374.157 254.583C355.891 245.139 338.687 239.865 333 238.248ZM203.182 242.442C198.968 260.883 170.399 281.154 157.414 281.154L157.158 281.154C156.953 281.144 156.727 281.125 156.485 281.084C156.239 281.046 155.975 280.987 155.695 280.909C155.557 280.869 155.409 280.82 155.263 280.782C152.906 280.038 149.643 278.228 147.172 275.797C145.472 274.13 144.133 272.159 143.712 270.039C143.634 269.667 143.556 269.298 143.475 268.927C142.774 265.789 141.901 261.871 144.669 255.459C145.051 254.599 145.391 253.797 145.704 253.063C145.803 252.821 145.91 252.576 146.008 252.341C146.302 251.649 146.563 251.012 146.801 250.436C147.191 249.461 147.512 248.631 147.775 247.925C147.884 247.651 147.984 247.386 148.069 247.144C148.862 244.926 148.958 244.096 149.066 243.236C149.166 242.563 149.263 241.738 149.538 240.566C150.349 237.107 150.769 234.175 151.141 231.564C151.806 226.87 152.384 222.818 154.914 219.094C155.344 218.46 155.822 217.881 156.36 217.375C156.546 217.199 156.724 217.032 156.915 216.865C157.112 216.698 157.309 216.553 157.5 216.405C158.115 215.973 158.772 215.593 159.483 215.27C159.729 215.162 159.974 215.055 160.216 214.969C160.718 214.782 161.242 214.623 161.793 214.486C164.119 213.922 166.864 213.834 170.019 214.233C173.471 214.508 176.666 215.159 179.499 215.952C181.865 216.603 183.978 217.369 185.764 218.08C185.95 218.151 186.127 218.218 186.302 218.296C186.645 218.433 186.976 218.57 187.3 218.719C187.79 218.923 188.238 219.121 188.658 219.304C189.215 219.557 189.725 219.783 190.174 219.985L190.595 220.183C192.589 221.09 194.303 222.087 195.766 223.133C196.488 223.663 197.165 224.199 197.768 224.744C197.975 224.921 198.173 225.108 198.353 225.302C198.549 225.49 198.736 225.676 198.91 225.862C204.399 231.642 204.127 238.327 203.182 242.442ZM216.42 172.543L215.865 175.887C214.585 183.421 211.642 193.752 200.794 196.411C190.358 198.963 187.884 199.507 180.455 199.841C180.291 199.86 180.113 199.86 179.937 199.86C174.513 199.86 164.075 196.441 162.227 187.937C161.044 182.465 163.458 178.497 167.436 171.921C168.098 170.834 168.815 169.67 169.575 168.372C174.832 159.514 176.904 153.105 178.569 147.964C180.189 142.94 181.539 138.788 185.009 135.348C185.81 134.547 186.717 133.792 187.773 133.07C188.447 132.609 189.15 132.2 189.895 131.818C190.881 131.328 191.916 130.902 193.001 130.556C195.415 129.786 198.024 129.396 200.635 129.396C205.696 129.396 210.751 130.85 214.356 133.744C215.978 135.043 218.285 137.641 219.624 145.304C220.314 149.251 219.138 156.505 216.42 172.543ZM293.816 193.986C290.081 200.396 288.039 203.926 284.813 206.572C278.414 211.829 270.948 213.16 264.798 213.16C260.381 213.16 256.63 212.478 254.421 212.074C248.068 210.913 236.243 208.763 232.304 199.429C231.534 197.583 231.526 196.411 231.526 194.924C231.526 193.455 231.526 190.987 230.842 185.11L230.804 184.72C230.489 182.06 230.138 179.05 230.9 175.188L230.99 174.729C233.218 163.394 233.821 161.662 234.322 160.684C235.476 158.456 238.211 157.577 240.439 158.723C242.598 159.846 243.497 162.462 242.481 164.661C242.256 165.305 241.622 167.719 239.9 176.488L239.811 176.949C239.321 179.421 239.537 181.297 239.823 183.673L239.86 184.075C240.601 190.456 240.601 193.347 240.601 194.912C240.601 195.191 240.601 195.492 240.612 195.673C240.614 195.742 240.649 195.834 240.671 195.901C241.409 197.653 243.074 198.982 245.104 200.002C246.365 200.636 247.682 199.431 247.402 198.049C245.383 188.06 245.494 176.409 249.31 169.209C250.561 166.82 252.872 162.908 255.068 159.257C255.076 159.245 255.082 159.237 255.087 159.226C255.092 159.215 255.101 159.207 255.105 159.197C255.33 158.827 255.55 158.464 255.771 158.097C255.958 157.782 256.144 157.483 256.315 157.189C257.283 155.583 258.191 154.11 258.919 152.938C259.015 152.771 259.113 152.604 259.213 152.447C259.28 152.328 259.35 152.22 259.417 152.124C259.574 151.868 259.711 151.634 259.841 151.431C259.897 151.334 259.956 151.246 260.005 151.156C260.035 151.119 260.056 151.079 260.075 151.048C260.142 150.93 260.212 150.822 260.271 150.736C260.387 150.549 260.477 150.413 260.525 150.324C260.53 150.315 260.533 150.311 260.535 150.302C260.546 150.284 260.567 150.253 260.579 150.234C260.586 150.221 260.59 150.219 260.598 150.205C261.355 149.103 262.104 148.055 262.831 147.069C263.82 145.73 262.674 143.975 261.134 144.605C257.425 146.118 254.893 148.05 254.379 148.456C252.414 150.021 249.558 149.698 248.006 147.734C246.451 145.773 246.774 142.909 248.738 141.342C251.075 139.508 263.456 130.475 278.285 134.716C288.969 137.756 294.568 145.918 296.678 148.987C298.378 151.48 303.59 159.046 303.423 169.609C303.298 177.665 299.939 183.46 293.816 193.986Z" fill="#ffffff" fill-rule="nonzero" opacity="1" stroke="none"/>
<path d="M197.514 138.74C196.755 140.578 195.847 142.855 194.871 145.329C192.592 151.056 190.008 157.545 188.766 159.897C186.623 163.964 184.955 166.528 183.624 168.595C182.099 170.969 180.884 172.847 179.968 175.466C178.359 180.047 178.07 185.167 179.117 190.733C176.276 190.42 171.628 188.465 171.102 185.999C170.709 184.165 171.849 182.156 175.209 176.63C175.883 175.528 176.605 174.329 177.394 172.995C183.169 163.271 185.505 156.036 187.224 150.747C189.077 144.991 189.953 142.577 192.905 140.562C194.224 139.642 195.83 139.058 197.514 138.74Z" fill="#ffffff" fill-rule="nonzero" opacity="1" stroke="none"/>
<path d="M191.875 342.673C188.728 349.102 184.81 355.036 182.368 357.976C180.348 352.51 176.834 339.99 177.761 329.915C177.788 329.623 177.82 329.335 177.863 329.055C178.235 325.943 179.063 323.089 180.534 320.801C181.504 319.298 184.191 318.378 187.241 318.378C189.492 318.378 191.942 318.872 194.052 320.004L194.069 320.004C195.198 320.608 196.736 321.831 196.898 325.384C197.13 330.186 194.841 336.64 191.875 342.673Z" fill="#ffffff" fill-rule="nonzero" opacity="1" stroke="none"/>
<path d="M364.314 270.629C364.557 270.826 364.711 271.122 364.571 271.403C363.63 273.291 362.504 274.617 361.172 276.177C359.566 278.09 357.728 280.259 356.02 283.641C353.587 288.434 352.809 292.808 352.398 304.004C351.916 317.156 352.425 324.544 352.809 329.93C353.172 335.133 353.395 338.27 352.469 343.344C350.599 353.58 346.22 360.357 340.675 368.933C333.736 379.661 326.561 390.749 314.678 394.284C313.573 394.623 313.535 394.623 310.437 394.634C307.739 394.634 303.252 394.645 294.759 394.957C279.236 395.521 271.449 395.801 264.785 397.081C257.795 398.433 254.149 399.921 250.614 401.349C247.423 402.639 244.409 403.866 238.628 405.055C235.182 405.749 230.033 406.509 212.485 406.536C194.249 406.568 183.239 406.576 168.702 404.919C148.756 402.643 138.744 401.502 132.093 397.951C116.408 389.585 109.785 374.539 98.8291 349.612C98.8103 349.568 98.7915 349.525 98.7715 349.479C98.6374 349.169 99.0149 348.871 99.3053 349.043C99.8251 349.366 100.367 349.633 100.939 349.824C101.418 349.994 101.917 350.123 102.42 350.207C103.423 350.377 104.469 350.388 105.53 350.207C105.716 350.175 105.885 350.131 106.05 350.064C106.083 350.05 106.112 350.034 106.144 350.021C106.33 349.929 106.559 350.004 106.638 350.196C107.335 352.117 108.443 353.828 110.302 354.815C112.165 355.785 114.282 355.86 116.354 355.844C118.488 355.812 120.639 355.69 122.765 355.434C123.891 355.316 125.044 355.868 125.475 356.916C127.424 361.637 129.835 365.054 133.459 365.557C133.656 365.584 133.912 365.617 134.235 365.617C135.051 365.617 136.313 365.38 138.091 364.157C139.468 363.213 141.6 363.768 142.589 365.113C143.494 366.339 144.571 367.22 145.499 367.963C149.231 371.795 158.3 373.633 165.918 373.633C170.073 373.633 173.799 373.086 175.994 372.019C179.13 370.497 179.13 368.161 178.976 367.214C178.709 365.52 178.466 363.838 178.262 362.173C178.237 361.973 178.539 361.896 178.62 362.082C179.076 363.076 179.633 364.316 181.118 364.556C181.28 364.571 181.46 364.606 181.665 364.606C183.788 364.606 187.093 365.299 187.66 367.344C187.952 368.387 188.361 369.363 188.919 370.243C190.193 372.261 192.788 374.666 197.933 374.751L198.331 374.751C204.238 374.751 208.797 372.82 211.871 369.002C212.071 368.756 212.262 368.503 212.445 368.247C213.551 366.689 216.832 366.622 218.236 367.915C219.818 369.378 221.809 370.133 224.026 370.133C224.383 370.133 224.744 370.116 225.115 370.074C227.758 369.793 230.047 368.392 231.755 366.002C232.873 364.442 233.689 362.524 234.284 360.448C234.46 359.837 235.3 359.657 235.77 360.085C236.898 361.13 238.709 362.236 241.321 362.236C241.956 362.236 242.646 362.167 243.379 362.015C248.51 360.982 251.064 356.736 252.274 351.942C252.314 351.78 252.546 351.738 252.654 351.863C253.953 353.446 256.351 355.272 260.525 355.272C260.738 355.272 260.959 355.272 261.176 355.262C263.386 355.159 265.248 354.189 266.592 352.454C268.228 350.323 268.872 347.162 269.02 343.983C269.064 343.055 269.661 342.241 270.519 341.884C274.922 340.042 280.255 336.08 281.817 333.379C281.871 333.285 281.924 333.185 281.978 333.083C282.337 332.388 282.952 331.839 283.72 331.693C287.131 331.046 288.618 330.402 289.971 329.815C291.073 329.329 291.959 328.947 294.439 328.561C314.163 325.551 318.014 324.889 322.282 322.044C328.665 317.786 328.988 311.925 329.303 306.257C329.574 301.463 329.881 296.022 333.604 289.639C334.957 287.309 336.517 284.401 338.177 281.324C341.082 275.937 345.14 268.395 348.044 264.443C348.591 263.696 349.58 263.465 350.432 263.826C357.249 266.722 363.056 269.622 364.314 270.629Z" fill="#ffffff" fill-rule="nonzero" opacity="1" stroke="none"/>
<path d="M172.765 329.319C171.984 336.139 171.507 345.249 172.612 357.116C172.923 360.465 173.361 363.941 173.902 367.462C172.967 367.971 170.175 368.686 165.212 368.608C158.079 368.465 151.136 366.67 149.05 364.414L148.727 364.124C146.991 362.731 145.854 361.812 145.693 359.322C145.639 358.481 146 357.649 146.77 356.472C147.196 355.808 147.757 355.043 148.451 354.1C149.651 352.491 151.138 350.486 152.661 347.901C157.126 340.359 158.818 338.031 160.969 335.087C161.138 334.851 161.319 334.611 161.505 334.365C162.771 332.63 164.259 330.556 166.495 327.147C168.16 324.616 169.545 322.634 170.687 321.076C172.593 318.487 173.841 317.08 174.64 316.315C174.521 317.49 174.258 319.139 174.002 320.661C173.624 323.003 173.148 325.868 172.765 329.319Z" fill="#ffffff" fill-rule="nonzero" opacity="1" stroke="none"/>
<path d="M169.497 223.297C169.454 223.356 169.402 223.415 169.359 223.477C168.432 224.763 167.371 226.215 166.103 229.045C162.703 236.602 162.639 240.881 162.585 244.323C162.552 246.126 162.534 247.561 162.041 249.237C161.701 250.342 161.148 251.609 160.51 253.069C158.505 257.661 155.886 263.68 157.061 271.779C155.436 270.998 152.951 269.212 152.607 268.261C152.521 267.819 152.426 267.385 152.327 266.951C151.764 264.424 151.391 262.777 152.997 259.078C157.222 249.334 157.743 247.025 158.075 244.371C158.142 243.791 158.211 243.341 158.382 242.609C159.273 238.766 159.74 235.476 160.122 232.832C160.691 228.82 161.073 226.166 162.425 224.17C162.919 223.431 164.315 223.049 166.312 223.049C167.101 223.049 167.993 223.108 168.966 223.246L169.192 223.262C169.291 223.273 169.397 223.281 169.497 223.297Z" fill="#ffffff" fill-rule="nonzero" opacity="1" stroke="none"/>
<path d="M163.925 319.411C163.695 317.074 163.285 314.733 162.437 312.532C162.377 312.422 162.124 311.858 162.07 311.75C161.916 311.47 161.741 311.206 161.578 310.928C161.566 310.918 161.561 310.918 161.561 310.909C161.551 310.893 161.545 310.893 161.545 310.886C161.451 310.784 161.365 310.684 161.273 310.586C161.135 310.448 160.987 310.317 160.839 310.196C160.812 310.163 160.787 310.137 160.764 310.125C160.696 310.069 160.593 309.989 160.483 309.924C160.303 309.829 160.132 309.727 159.957 309.638C159.904 309.603 159.777 309.551 159.659 309.509C159.659 309.509 159.65 309.509 159.65 309.501C159.623 309.49 159.596 309.484 159.575 309.474C159.548 309.457 159.532 309.447 159.516 309.441C159.489 309.43 159.473 309.426 159.456 309.426C159.44 309.426 159.44 309.414 159.44 309.414C159.387 309.388 159.354 309.382 159.329 309.371C157.969 308.873 156.59 308.326 155.146 308.113C155.137 308.113 155.113 308.105 155.094 308.105L155.062 308.105C154.9 308.105 154.568 308.072 154.552 308.072C154.351 308.062 154.153 308.062 153.957 308.072C153.863 308.072 153.771 308.072 153.685 308.08L153.609 308.08C153.577 308.08 153.537 308.091 153.494 308.091C153.477 308.107 153.45 308.107 153.439 308.107C153.431 308.107 153.423 308.107 153.423 308.107C153.1 308.201 152.761 308.288 152.438 308.387C152.3 308.458 152.148 308.525 152.012 308.612C151.896 308.679 151.774 308.765 151.656 308.825C151.647 308.832 151.631 308.848 151.612 308.848L151.589 308.875C151.435 309.029 151.274 309.172 151.12 309.326C151.068 309.38 150.926 309.555 150.823 309.684C150.796 309.699 150.78 309.716 150.78 309.732C150.771 309.741 150.771 309.741 150.764 309.749C150.756 309.756 150.756 309.764 150.737 309.772C150.729 309.783 150.729 309.791 150.721 309.791C150.68 309.864 150.637 309.926 150.621 309.962C150.074 310.809 149.522 311.654 148.954 312.491C147.644 314.499 146.302 316.496 144.94 318.478C143.699 320.273 142.459 322.068 141.225 323.859C140.536 324.865 139.856 325.856 139.178 326.861C139.059 327.032 138.948 327.201 138.838 327.37C139.643 327.524 140.452 327.683 141.268 327.837C143.095 328.171 144.915 328.492 146.768 328.745C150.583 329.265 154.464 329.504 158.33 329.367C158.516 329.356 158.703 329.367 158.874 329.4C159.804 328.073 160.898 326.492 162.294 324.374C163.067 323.191 163.806 322.098 164.501 321.084C164.188 320.6 163.992 320.02 163.925 319.411Z" fill="#ffffff" fill-rule="nonzero" opacity="1" stroke="none"/>
<path d="M150.333 335.179C150.004 338.122 146.711 345.736 141.575 352.988C137.275 359.05 134.663 360.521 134.144 360.573C132.069 360.285 130.021 355.149 128.396 350.056C127.745 347.991 127.154 345.934 126.66 344.209C125.548 340.334 125.346 335.137 125.54 331.873C129.878 334.277 137.494 334.923 148.19 334.966L148.223 334.966C148.929 335.042 149.626 335.12 150.333 335.179Z" fill="#ffffff" fill-rule="nonzero" opacity="1" stroke="none"/>
<path d="M142.726 310.953C142.726 310.964 142.726 310.964 142.726 310.969C142.675 311.039 142.632 311.114 142.583 311.182C140.745 313.884 138.894 316.574 137.041 319.265C136.081 320.653 135.13 322.038 134.184 323.433C133.666 324.191 132.969 325.023 132.366 325.924C130.843 325.565 129.323 325.217 127.816 324.792C126.585 324.436 125.371 324.053 124.176 323.577C123.937 323.49 123.708 323.396 123.487 323.289C123.29 322.889 123.009 322.532 122.67 322.259C122.678 322.251 122.678 322.227 122.686 322.216C123.12 321.332 123.562 320.44 123.996 319.557C124.82 317.934 125.648 316.321 126.564 314.754C128.2 311.931 130.169 309.059 132.934 307.229C133.071 307.127 133.222 307.033 133.368 306.941C134.44 306.267 135.512 305.793 136.827 305.631C136.981 305.615 137.908 305.62 138.341 305.658C138.417 305.658 138.479 305.666 138.523 305.666L138.531 305.666C138.563 305.677 138.625 305.693 138.717 305.725C139.04 305.827 139.366 305.896 139.689 306.006C139.8 306.059 139.899 306.108 140.012 306.167C140.292 306.338 140.581 306.491 140.845 306.703C140.419 306.38 141.433 307.425 141.433 307.35C142.249 308.479 142.497 309.426 142.726 310.953Z" fill="#ffffff" fill-rule="nonzero" opacity="1" stroke="none"/>
<path d="M128.175 303.29C124.774 306.086 122.302 309.81 120.237 313.686C119.079 315.835 118.033 318.028 116.944 320.214C116.834 320.437 116.723 320.65 116.596 320.869C115.567 320.646 114.537 320.349 113.533 320.028C112.463 319.688 111.399 319.298 110.381 318.824C109.914 318.6 109.445 318.371 108.979 318.126C109.997 316.196 111.213 314.343 112.371 312.543C114.005 309.999 115.772 307.501 117.693 305.155C118.415 304.262 119.181 303.284 120.194 302.697C121.228 302.085 122.481 302.23 123.67 302.297C124.928 302.376 126.281 302.408 127.469 302.885C127.714 302.99 127.981 303.155 128.175 303.29Z" fill="#ffffff" fill-rule="nonzero" opacity="1" stroke="none"/>
<path d="M122.775 348.924C122.605 349.067 122.463 349.22 122.336 349.401C122.218 349.433 122.096 349.46 122.021 349.479C121.205 349.562 120.372 349.622 119.548 349.676C117.965 349.776 116.36 349.846 114.762 349.787C113.869 349.754 113.062 349.616 112.695 349.048C112.107 348.156 111.929 346.599 111.72 345.416C110.674 339.609 110.537 333.56 111.278 327.683C114.312 328.772 117.435 329.615 120.635 330.141C119.946 335.438 121.121 343.215 121.808 345.596C122.129 346.704 122.452 347.824 122.775 348.924Z" fill="#ffffff" fill-rule="nonzero" opacity="1" stroke="none"/>
<path d="M113.012 301.354C110.327 304.653 107.88 308.164 105.683 311.802C104.797 313.281 103.795 314.811 103.056 316.394C101.992 316.096 101.033 315.67 100.014 315.04C99.2324 314.556 98.4728 314.02 97.7344 313.459C97.5486 313.305 97.0394 312.906 96.722 312.651C96.6491 312.593 96.5785 312.534 96.5009 312.491C96.7455 311.796 97.1958 311.02 97.4439 310.5C98.0072 309.269 98.6351 308.059 99.2924 306.881C100.54 304.672 101.936 302.51 103.517 300.522C104.104 299.789 104.663 298.846 105.576 298.575C106.409 298.337 107.506 298.448 108.176 298.563C110.164 298.949 111.722 299.852 113.012 301.354Z" fill="#ffffff" fill-rule="nonzero" opacity="1" stroke="none"/>
<path d="M92.3137 315.67C92.3513 315.531 92.5335 315.512 92.617 315.63C93.3237 316.636 94.3067 317.508 95.3638 318.33C95.8354 318.689 96.301 319.044 96.7784 319.381C96.8372 319.425 96.8642 319.497 96.8478 319.57C95.7354 324.18 94.9758 329.076 94.9887 333.9C94.9887 334.113 94.6677 334.155 94.6195 333.948C93.2591 328.332 91.4106 318.972 92.3137 315.67Z" fill="#ffffff" fill-rule="nonzero" opacity="1" stroke="none"/>
<path d="M105.466 325.697C104.921 329.709 104.66 333.733 104.834 337.777C104.921 339.994 105.159 342.199 105.457 344.39C105.457 344.405 105.457 344.424 105.466 344.432L105.466 344.444C104.988 344.333 104.49 344.317 103.981 344.39C104.08 344.357 103.819 344.373 103.709 344.373L103.676 344.373C103.601 344.365 103.49 344.357 103.453 344.348C102.892 344.211 102.843 344.152 102.399 343.872C101.819 343.497 101.208 342.815 100.801 342.12C99.7204 340.251 99.4829 337.979 99.397 335.861C99.2383 331.706 99.5934 327.556 100.369 323.485C101.033 323.755 101.609 324.003 102.572 324.418C103.522 324.833 104.508 325.242 105.47 325.686L105.47 325.697L105.466 325.697Z" fill="#ffffff" fill-rule="nonzero" opacity="1" stroke="none"/>
</g>
</g>
</svg>
